HIERARCHY
ROOT Hips
{
	OFFSET 0.000000 0.000000 0.000000
	CHANNELS 6 Xposition Yposition Zposition Xrotation Yrotation Zrotation
	JOINT LeftUpLeg_virtual
	{
		OFFSET 0.000000 0.000000 0.000000
		CHANNELS 3 Xrotation Yrotation Zrotation
		JOINT LeftUpLeg
		{
			OFFSET 13.026900 -6.336304 -1.092800
			CHANNELS 3 Xrotation Yrotation Zrotation
			JOINT LeftLeg
			{
				OFFSET 0.524474 -46.096886 9.782700
				CHANNELS 3 Xrotation Yrotation Zrotation
				JOINT LeftFoot
				{
					OFFSET -0.524474 -53.427422 -12.948200
					CHANNELS 3 Xrotation Yrotation Zrotation
					JOINT LeftToeBase
					{
						OFFSET 0.192200 -14.009700 16.364100
						CHANNELS 3 Xrotation Yrotation Zrotation
						JOINT LeftToe_End
						{
							OFFSET -1.784700 -0.561700 9.474800
							CHANNELS 3 Xrotation Yrotation Zrotation
							End Site
							{
								OFFSET 0 0 0
							}
						}
					}
				}
			}
		}
	}
	JOINT RightUpLeg_virtual
	{
		OFFSET 0.000000 0.000000 0.000000
		CHANNELS 3 Xrotation Yrotation Zrotation
		JOINT RightUpLeg
		{
			OFFSET -12.883000 -6.336304 -1.092800
			CHANNELS 3 Xrotation Yrotation Zrotation
			JOINT RightLeg
			{
				OFFSET -0.524587 -46.096825 9.782800
				CHANNELS 3 Xrotation Yrotation Zrotation
				JOINT RightFoot
				{
					OFFSET 0.524587 -53.427383 -12.948300
					CHANNELS 3 Xrotation Yrotation Zrotation
					JOINT RightToeBase
					{
						OFFSET -0.192200 -14.009700 16.364100
						CHANNELS 3 Xrotation Yrotation Zrotation
						JOINT RightToe_End
						{
							OFFSET 1.784700 -0.561700 9.474800
							CHANNELS 3 Xrotation Yrotation Zrotation
							End Site
							{
								OFFSET 0 0 0
							}
						}
					}
				}
			}
		}
	}
	JOINT Spine_virtual
	{
		OFFSET 0.000000 0.000000 0.000000
		CHANNELS 3 Xrotation Yrotation Zrotation
		JOINT Spine
		{
			OFFSET 0.072000 7.257294 -0.789700
			CHANNELS 3 Xrotation Yrotation Zrotation
			JOINT Spine1
			{
				OFFSET 0.000000 12.508769 -0.658067
				CHANNELS 3 Xrotation Yrotation Zrotation
				JOINT Spine1_split
				{
					OFFSET 0.000000 12.508769 -0.658067
					CHANNELS 3 Xrotation Yrotation Zrotation
					JOINT Spine2
					{
						OFFSET 0.000000 12.508769 -0.658067
						CHANNELS 3 Xrotation Yrotation Zrotation
						JOINT Neck_virtual
						{
							OFFSET 0.000000 0.000000 0.000000
							CHANNELS 3 Xrotation Yrotation Zrotation
							JOINT Neck
							{
								OFFSET 0.000000 14.033295 7.520400
								CHANNELS 3 Xrotation Yrotation Zrotation
								JOINT Head
								{
									OFFSET 0.000000 8.198502 5.703100
									CHANNELS 3 Xrotation Yrotation Zrotation
									JOINT HeadTop_End
									{
										OFFSET 0.000000 17.760803 13.332701
										CHANNELS 3 Xrotation Yrotation Zrotation
										End Site
										{
											OFFSET 0 0 0
										}
									}
								}
							}
						}
						JOINT LeftShoulder_virtual
						{
							OFFSET 0.000000 0.000000 0.000000
							CHANNELS 3 Xrotation Yrotation Zrotation
							JOINT LeftShoulder
							{
								OFFSET 6.292450 5.785301 -0.669000
								CHANNELS 3 Xrotation Yrotation Zrotation
								JOINT LeftShoulder_split
								{
									OFFSET 6.292450 5.785301 -0.669000
									CHANNELS 3 Xrotation Yrotation Zrotation
									JOINT LeftArm
									{
										OFFSET 13.907140 -6.093903 1.965100
										CHANNELS 3 Xrotation Yrotation Zrotation
										JOINT LeftForeArm
										{
											OFFSET 34.140198 0.000000 0.000000
											CHANNELS 3 Xrotation Yrotation Zrotation
											JOINT LeftHand
											{
												OFFSET 40.960209 0.000000 0.000000
												CHANNELS 3 Xrotation Yrotation Zrotation
												End Site
												{
													OFFSET 0 0 0
												}
											}
										}
									}
								}
							}
						}
						JOINT RightShoulder_virtual
						{
							OFFSET 0.000000 0.000000 0.000000
							CHANNELS 3 Xrotation Yrotation Zrotation
							JOINT RightShoulder
							{
								OFFSET -6.292450 5.785301 -0.669000
								CHANNELS 3 Xrotation Yrotation Zrotation
								JOINT RightShoulder_split
								{
									OFFSET -6.292450 5.785301 -0.669000
									CHANNELS 3 Xrotation Yrotation Zrotation
									JOINT RightArm
									{
										OFFSET -13.907140 -6.093903 1.965100
										CHANNELS 3 Xrotation Yrotation Zrotation
										JOINT RightForeArm
										{
											OFFSET -34.140198 0.000000 0.000000
											CHANNELS 3 Xrotation Yrotation Zrotation
											JOINT RightHand
											{
												OFFSET -40.960209 0.000000 0.000000
												CHANNELS 3 Xrotation Yrotation Zrotation
												End Site
												{
													OFFSET 0 0 0
												}
											}
										}
									}
								}
							}
						}
					}
				}
			}
		}
	}
}
MOTION
Frames: 6
Frame Time: 0.03333333
2.623029 91.243675 4.054314 0.000000 0.000000 0.000000 -0.960241 -47.554171 3.189360 -37.523253 10.629111 18.899897 54.731925 -7.999169 0.313126 -17.793206 -9.689930 -8.178312 -2.377878 -0.568662 0.231152 0.000000 0.000000 0.000000 -2.190899 -46.600547 3.611144 -23.578725 -11.907479 -30.506849 56.740390 -0.754506 -4.415474 -19.740560 -11.171536 27.502829 -3.162932 -0.345575 0.161433 0.000000 0.000000 0.000000 -0.392125 -47.524371 4.286125 8.715604 11.631563 -2.493340 0.662280 3.947818 -1.762981 0.419308 -1.649587 1.179150 0.000000 0.000000 0.000000 1.981275 4.003242 -1.779317 -8.687624 11.914142 4.141966 6.422571 16.961993 1.254262 0.000000 0.000000 0.000000 1.572711 4.057760 -1.388115 0.815559 0.257449 -4.264314 -0.663463 -3.920921 1.453044 6.115758 1.442816 -39.021830 178.302361 -49.491025 178.631645 0.000000 0.000000 0.000000 1.274014 3.648366 -1.651543 1.402801 13.491026 -4.685880 -6.803618 -1.636629 2.414582 -60.185428 21.081959 64.628561 -166.110815 79.328139 164.867256 0.000000 0.000000 0.000000 
3.209743 91.419754 4.152004 0.000000 0.000000 0.000000 -0.751735 -52.227793 2.874061 -34.748020 11.125565 19.228466 54.151813 -7.056516 -0.733315 -20.398833 -6.130312 -7.381229 -2.658150 -0.621524 0.434711 0.000000 0.000000 0.000000 -1.835999 -50.791646 3.466426 -26.800713 -7.521028 -29.751846 57.161409 0.584331 -5.338898 -18.827464 -9.041713 27.483735 -2.711951 -0.232074 0.063372 0.000000 0.000000 0.000000 0.235422 -51.276320 4.361299 8.969942 11.046548 -1.631060 0.966573 3.826413 -1.693338 0.454260 -1.434576 1.021647 0.000000 0.000000 0.000000 2.310157 3.910748 -1.687432 -8.846504 13.024792 3.830541 5.472899 19.959884 -0.495010 0.000000 0.000000 0.000000 1.581959 3.962049 -1.294319 1.023758 0.748228 -2.339353 -0.019466 -4.375849 0.569914 2.014097 5.850376 -34.035502 178.696108 -54.147612 178.888159 0.000000 0.000000 0.000000 1.275095 3.547945 -1.496878 1.153709 10.959933 -2.685969 -6.112700 -1.825441 2.565882 -61.226977 23.733439 69.917511 -172.346314 74.796964 171.000958 0.000000 0.000000 0.000000 
3.652989 91.363129 4.141811 0.000000 0.000000 0.000000 -0.531360 -56.892815 2.191449 -32.526344 10.714042 19.658671 54.491727 -6.265462 -1.079844 -22.812057 -2.756075 -6.881834 -2.771829 -0.631556 0.486898 0.000000 0.000000 0.000000 -1.545189 -54.690329 2.833419 -29.351160 -4.154500 -28.440226 56.527455 1.713145 -6.028507 -18.021160 -7.124040 27.343431 -2.422561 -0.071034 -0.048640 0.000000 0.000000 0.000000 0.995688 -54.613974 3.989519 9.156333 9.958701 -0.991086 1.278731 3.262006 -1.627196 0.787851 -1.257268 0.863292 0.000000 0.000000 0.000000 2.604483 3.272994 -1.553905 -8.935098 14.423951 3.517514 4.877140 23.058541 -2.442173 0.000000 0.000000 0.000000 1.673144 3.322208 -1.233459 1.135408 1.089010 -0.058078 -0.022350 -2.954746 -0.248178 -6.716963 6.274802 -26.536999 178.590568 -66.467064 178.836469 0.000000 0.000000 0.000000 1.393486 2.964645 -1.453122 0.944032 9.320613 -1.051685 -5.606545 -2.594013 2.441121 -61.671069 26.465789 74.355946 -176.164430 70.695593 174.578870 0.000000 0.000000 0.000000 
3.902830 91.188576 3.861279 0.000000 0.000000 0.000000 -0.621798 -60.305878 1.064328 -31.393455 9.363983 20.128465 55.613688 -5.977409 -0.623430 -24.447325 -0.148793 -7.118866 -2.549418 -0.587644 0.401247 0.000000 0.000000 0.000000 -1.622518 -57.499770 1.612997 -30.615630 -2.452054 -26.909742 55.092514 2.289015 -6.342750 -17.624226 -5.812826 26.902192 -2.274382 0.104082 -0.080434 0.000000 0.000000 0.000000 1.502884 -56.901770 3.103290 9.234517 8.353725 -0.562439 1.489456 2.248290 -1.606786 1.193503 -0.983846 0.631538 0.000000 0.000000 0.000000 2.727824 2.098693 -1.500874 -8.803895 15.923389 3.304412 5.095091 25.939850 -4.458889 0.000000 0.000000 0.000000 2.009233 2.126907 -1.290561 1.194848 1.150119 2.059076 -0.915895 -0.202072 -0.885732 -17.650240 1.798402 -19.177023 171.240998 -86.175308 171.563820 0.000000 0.000000 0.000000 1.601597 1.872546 -1.543328 0.802141 8.587523 0.192887 -5.768694 -3.360755 1.935406 -60.001340 29.357707 77.490012 -178.580965 66.746357 176.639033 0.000000 0.000000 0.000000 
3.957824 90.983948 3.514446 0.000000 0.000000 0.000000 -1.074455 -61.531931 -0.437987 -31.448407 7.520928 20.403216 57.020154 -6.153972 0.479210 -24.839149 1.320134 -8.158755 -2.269826 -0.474924 0.277429 0.000000 0.000000 0.000000 -2.076595 -58.663470 0.005740 -30.360594 -2.576803 -25.584311 53.463500 2.152211 -6.298407 -17.699476 -5.324263 26.238925 -2.336959 0.252977 0.000437 0.000000 0.000000 0.000000 1.751486 -57.843950 1.948065 9.137998 6.472482 -0.358473 1.579765 1.023305 -1.686328 1.291992 -0.798561 0.197007 0.000000 0.000000 0.000000 2.650947 0.696128 -1.600913 -8.567726 17.170520 3.230835 5.972659 28.103671 -6.160749 0.000000 0.000000 0.000000 2.552072 0.645732 -1.436964 1.217553 1.102746 3.485711 -2.372411 2.548426 -1.124569 -26.793147 -5.614144 -15.054321 2.934642 -72.255267 3.113905 0.000000 0.000000 0.000000 1.918514 0.550531 -1.763282 0.779458 8.895585 0.973257 -6.610715 -3.438843 1.715273 -55.187966 32.432887 78.298461 -179.614222 62.425935 177.329688 0.000000 0.000000 0.000000 
3.859837 90.848381 3.261105 0.000000 0.000000 0.000000 -1.334594 -60.333663 -1.670901 -32.645244 5.753868 20.290083 58.325082 -6.513697 1.887288 -24.037375 1.575261 -9.572754 -2.141493 -0.334217 0.177889 0.000000 0.000000 0.000000 -2.598602 -57.863901 -1.483642 -28.765635 -4.230301 -24.760488 52.191214 1.412904 -6.021274 -18.184356 -5.688572 25.705098 -2.477934 0.355852 0.129528 0.000000 0.000000 0.000000 1.741158 -57.033541 0.893576 8.937962 4.744701 -0.374770 1.584786 0.009117 -1.866216 1.046829 -0.393968 -0.099339 0.000000 0.000000 0.000000 2.376344 -0.473362 -1.828695 -8.350892 17.750721 3.264880 7.102555 28.742232 -7.016842 0.000000 0.000000 0.000000 3.166423 -0.659914 -1.634163 1.157191 1.309001 4.152227 -4.042705 3.968477 -1.837196 -32.510509 -12.714311 -15.708465 2.555713 -57.795449 2.362685 0.000000 0.000000 0.000000 2.295395 -0.599531 -2.067125 0.889380 10.278344 0.976362 -7.492303 -3.259515 2.149859 -47.039264 35.252881 75.806214 -179.721046 57.367599 177.182880 0.000000 0.000000 0.000000 
